# xmcd
# 
# Track frame offsets:
#     150
#     17235
#     42793
#     54093
#     69408
#     86663
#     111503
#     128703
#     149683
# 
# Disc length: 2309
# 
# Revision: 10
# Processed by: cddbd v1.5.2PL0 Copyright (c) Steve Scherf et al.
# Submitted via: fre:ac v1.1beta1pre5
# 
DISCID=7b090309
DTITLE=Neil Young and Crazy Horse - Rust Never Sleeps
DYEAR=1979
DGENRE=Southern Rock
TTITLE0=My My, Hey Hey (Out Of The Blue)
TTITLE1=Thrasher
TTITLE2=Ride My Llama
TTITLE3=Pocahontas
TTITLE4=Sail Away
TTITLE5=Powderfinger
TTITLE6=Welfare Mothers
TTITLE7=Sedan Delivery
TTITLE8=Hey Hey, My My (Into The Black)
EXTD=
EXTT0=
EXTT1=
EXTT2=
EXTT3=
EXTT4=
EXTT5=
EXTT6=
EXTT7=
EXTT8=
PLAYORDER=
